<svg width="22" height="23" viewBox="0 0 22 23" fill="none" xmlns="http://www.w3.org/2000/svg">
<path d="M15.0848 11.8452C16.1685 10.9926 16.9596 9.82333 17.3478 8.50015C17.7361 7.17697 17.7023 5.76567 17.2512 4.46259C16.8 3.15951 15.9539 2.02945 14.8306 1.22963C13.7073 0.429808 12.3626 0 10.9836 0C9.60463 0 8.25995 0.429808 7.13662 1.22963C6.0133 2.02945 5.1672 3.15951 4.71604 4.46259C4.26488 5.76567 4.23109 7.17697 4.61937 8.50015C5.00765 9.82333 5.7987 10.9926 6.88245 11.8452C5.02541 12.5892 3.40508 13.8233 2.1942 15.4157C0.983314 17.0081 0.227271 18.8993 0.00666779 20.8877C-0.00930062 21.0328 0.00348032 21.1797 0.0442806 21.32C0.0850808 21.4602 0.153101 21.591 0.244459 21.705C0.428964 21.9351 0.697323 22.0825 0.990502 22.1147C1.28368 22.147 1.57766 22.0614 1.80778 21.8769C2.03789 21.6924 2.18528 21.4241 2.21753 21.1309C2.46027 18.97 3.49064 16.9742 5.11179 15.525C6.73294 14.0758 8.83122 13.2746 11.0057 13.2746C13.1802 13.2746 15.2785 14.0758 16.8996 15.525C18.5208 16.9742 19.5512 18.97 19.7939 21.1309C19.8239 21.4025 19.9536 21.6534 20.1577 21.8351C20.3618 22.0167 20.626 22.1164 20.8993 22.1147H21.0209C21.3107 22.0814 21.5755 21.9348 21.7578 21.7071C21.94 21.4793 22.0248 21.1888 21.9937 20.8987C21.7721 18.9048 21.0119 17.0087 19.7948 15.4138C18.5777 13.8189 16.9495 12.5853 15.0848 11.8452ZM10.9836 11.0604C10.1091 11.0604 9.25417 10.8011 8.52703 10.3152C7.79988 9.82933 7.23313 9.13875 6.89846 8.33079C6.56379 7.52282 6.47623 6.63376 6.64684 5.77603C6.81745 4.9183 7.23858 4.13042 7.85697 3.51203C8.47536 2.89364 9.26324 2.47251 10.121 2.3019C10.9787 2.13129 11.8678 2.21885 12.6757 2.55352C13.4837 2.88819 14.1743 3.45494 14.6601 4.18209C15.146 4.90923 15.4053 5.76413 15.4053 6.63867C15.4053 7.81138 14.9395 8.93606 14.1102 9.7653C13.281 10.5945 12.1563 11.0604 10.9836 11.0604Z" fill="#050505"/>
</svg>
