<svg width="22" height="23" viewBox="0 0 22 23" fill="none" xmlns="http://www.w3.org/2000/svg">
<path fill-rule="evenodd" clip-rule="evenodd" d="M6.64227 13.8167C6.41108 13.4818 6.24273 13.1044 6.14873 12.7027L5.08833 8.3922C5.05882 8.3317 5.03684 8.26734 5.0232 8.2005L3.87191 3.20303C3.7656 2.74778 3.50793 2.34209 3.14106 2.05233C2.77419 1.76257 2.31984 1.6059 1.85234 1.60796H0.80397C0.590744 1.60796 0.386249 1.52326 0.235476 1.37248C0.0847022 1.22171 0 1.01721 0 0.803989C0 0.590763 0.0847022 0.386272 0.235476 0.235498C0.386249 0.0847247 0.590744 2.24453e-05 0.80397 2.24453e-05H1.85234C2.6832 -0.00288131 3.49048 0.276037 4.14234 0.791212C4.7942 1.30639 5.2521 2.02738 5.44126 2.83642L5.78166 4.32232C6.03207 4.08238 6.31959 3.88291 6.634 3.73209C7.08458 3.51593 7.57852 3.40539 8.07825 3.40885H18.6906C19.1904 3.40539 19.6843 3.51593 20.1349 3.73209C20.5855 3.94823 20.9808 4.26429 21.2909 4.65621C21.601 5.04813 21.8176 5.5056 21.9242 5.99383C22.0309 6.48206 22.0249 6.98818 21.9065 7.47371L20.6202 12.7156C20.4465 13.4398 20.0315 14.0833 19.4436 14.5403C18.8556 14.9973 18.1296 15.2407 17.385 15.2304H9.31644C9.31535 15.2304 9.31424 15.2304 9.31315 15.2304L7.60874 15.2304C7.37163 15.2304 7.14423 15.3246 6.97657 15.4922C6.80892 15.6599 6.71472 15.8873 6.71472 16.1244C6.71472 16.3615 6.80892 16.5889 6.97657 16.7566C7.14423 16.9242 7.37163 17.0184 7.60874 17.0184H18.324C18.4066 17.0184 18.4879 17.0311 18.5653 17.0555C18.8195 17.0794 19.0701 17.1412 19.3086 17.24C19.7787 17.4347 20.1805 17.7645 20.4632 18.1875C20.7459 18.6106 20.8968 19.108 20.8968 19.6168C20.8968 20.2992 20.6257 20.9535 20.1432 21.436C19.6607 21.9185 19.0064 22.1895 18.324 22.1895C17.8152 22.1895 17.3178 22.0387 16.8947 21.756C16.4717 21.4733 16.1419 21.0715 15.9472 20.6014C15.7525 20.1313 15.7015 19.614 15.8008 19.1149C15.8342 18.9467 15.8843 18.7831 15.9497 18.6264H11.8098C11.94 18.9387 12.0081 19.2752 12.0081 19.6168C12.0081 20.2992 11.737 20.9535 11.2545 21.436C10.7721 21.9185 10.1177 22.1895 9.43538 22.1895C8.92655 22.1895 8.42913 22.0387 8.00606 21.756C7.58298 21.4733 7.25323 21.0715 7.05851 20.6014C6.86379 20.1313 6.81284 19.614 6.91211 19.1149C6.94953 18.9268 7.00768 18.7444 7.08489 18.5709C6.61676 18.4707 6.18332 18.2373 5.83959 17.8936C5.37038 17.4244 5.10679 16.788 5.10679 16.1244C5.10679 15.4609 5.37038 14.8245 5.83959 14.3553C6.07185 14.123 6.34507 13.9411 6.64227 13.8167ZM7.69235 12.3361L6.56644 7.74805L6.37055 6.89296C6.34959 6.70921 6.35895 6.52279 6.39874 6.34123C6.45315 6.09289 6.56304 5.86008 6.7202 5.66024C6.87734 5.46041 7.07767 5.29872 7.30618 5.18728C7.53468 5.07585 7.78544 5.01756 8.03966 5.01678H18.6713C18.926 5.01632 19.1774 5.07379 19.4065 5.18485C19.6357 5.29591 19.8365 5.45764 19.9939 5.65779C20.1513 5.85795 20.2611 6.09129 20.315 6.34016C20.3689 6.58903 20.3655 6.84689 20.305 7.09423L19.0187 12.3361C18.9315 12.7035 18.7227 13.0305 18.4261 13.2641C18.1294 13.4976 17.7625 13.6239 17.385 13.6225H9.32601C9.32317 13.6225 9.32033 13.6225 9.31748 13.6225C9.31604 13.6225 9.31459 13.6225 9.31315 13.6225C8.94024 13.621 8.57813 13.4949 8.28495 13.2641C7.98833 13.0305 7.77947 12.7035 7.69235 12.3361ZM9.43538 18.6264C9.24202 18.6264 9.05301 18.6837 8.89224 18.7911C8.73147 18.8985 8.60616 19.0512 8.53217 19.2299C8.45817 19.4085 8.43881 19.6051 8.47653 19.7947C8.51425 19.9844 8.60737 20.1585 8.74409 20.2953C8.88081 20.432 9.05501 20.5251 9.24465 20.5628C9.43429 20.6005 9.63086 20.5812 9.80949 20.5072C9.98814 20.4332 10.1408 20.3079 10.2482 20.1471C10.3557 19.9864 10.413 19.7973 10.413 19.604C10.413 19.3447 10.31 19.096 10.1267 18.9127C9.94332 18.7294 9.69466 18.6264 9.43538 18.6264ZM18.324 18.6264C18.131 18.6276 17.9426 18.686 17.7827 18.7942C17.6228 18.9024 17.4985 19.0556 17.4254 19.2343C17.3524 19.413 17.334 19.6094 17.3724 19.7986C17.4109 19.9878 17.5045 20.1614 17.6415 20.2975C17.7784 20.4336 17.9526 20.5261 18.1421 20.5633C18.3316 20.6005 18.5278 20.5807 18.7061 20.5066C18.8843 20.4324 19.0366 20.3071 19.1438 20.1465C19.2509 19.9858 19.3081 19.7971 19.3081 19.604C19.3081 19.4751 19.2826 19.3474 19.2331 19.2284C19.1835 19.1093 19.111 19.0013 19.0195 18.9104C18.928 18.8195 18.8195 18.7477 18.7001 18.6989C18.5825 18.6509 18.4567 18.6262 18.3297 18.6263C18.3278 18.6263 18.3259 18.6263 18.324 18.6264Z" fill="#050505"/>
</svg>
