<svg width="45" height="55" viewBox="0 0 45 55" fill="none" xmlns="http://www.w3.org/2000/svg">
<path d="M11.8147 14.1602C12.5097 15.4343 13.3012 17.0173 14.1892 18.9092C15.1158 20.7625 16.0618 22.7895 17.027 24.9903C18.0309 27.1524 19.0154 29.3725 19.9807 31.6505C20.9459 33.9285 21.8533 36.0714 22.7027 38.0791C23.5521 36.0714 24.4595 33.9285 25.4247 31.6505C26.39 29.3725 27.3552 27.1524 28.3205 24.9903C29.3243 22.7895 30.2703 20.7625 31.1583 18.9092C32.0849 17.0173 32.8958 15.4343 33.5907 14.1602H41.8147C42.2008 16.8242 42.5483 19.8165 42.8571 23.137C43.2046 26.4188 43.4942 29.8551 43.7259 33.4459C43.9961 36.998 44.2278 40.5694 44.4209 44.1602C44.6525 47.7509 44.8456 51.1293 45 54.2953H36.1969C36.0811 50.3957 35.9266 46.1486 35.7336 41.554C35.5405 36.9594 35.251 32.3262 34.8649 27.6544C34.1699 29.276 33.3977 31.0714 32.5483 33.0405C31.6988 35.0096 30.8494 36.9787 30 38.9478C29.1892 40.9169 28.3977 42.8088 27.6255 44.6235C26.8533 46.3995 26.1969 47.9246 25.6564 49.1988H19.3436C18.8031 47.9246 18.1467 46.3995 17.3745 44.6235C16.6023 42.8088 15.7915 40.9169 14.9421 38.9478C14.1313 36.9787 13.3012 35.0096 12.4517 33.0405C11.6023 31.0714 10.8301 29.276 10.1351 27.6544C9.74904 32.3262 9.45946 36.9594 9.26641 41.554C9.07336 46.1486 8.91892 50.3957 8.80309 54.2953H0C0.15444 51.1293 0.328185 47.7509 0.521236 44.1602C0.752896 40.5694 0.984556 36.998 1.21622 33.4459C1.48649 29.8551 1.77606 26.4188 2.08494 23.137C2.43243 19.8165 2.79923 16.8242 3.18533 14.1602H11.8147Z" fill="#8A4B00"/>
<path d="M13.2046 5.09653C13.2046 6.67954 12.6834 7.93436 11.6409 8.861C10.6371 9.74903 9.44015 10.1931 8.05019 10.1931C6.66023 10.1931 5.44401 9.74903 4.40154 8.861C3.39768 7.93436 2.89575 6.67954 2.89575 5.09653C2.89575 3.51351 3.39768 2.27799 4.40154 1.38996C5.44401 0.46332 6.66023 0 8.05019 0C9.44015 0 10.6371 0.46332 11.6409 1.38996C12.6834 2.27799 13.2046 3.51351 13.2046 5.09653Z" fill="#00978E"/>
<path d="M42.1622 5.09653C42.1622 6.67954 41.6409 7.93436 40.5984 8.861C39.5946 9.74903 38.3977 10.1931 37.0077 10.1931C35.6177 10.1931 34.4015 9.74903 33.3591 8.861C32.3552 7.93436 31.8533 6.67954 31.8533 5.09653C31.8533 3.51351 32.3552 2.27799 33.3591 1.38996C34.4015 0.46332 35.6177 0 37.0077 0C38.3977 0 39.5946 0.46332 40.5984 1.38996C41.6409 2.27799 42.1622 3.51351 42.1622 5.09653Z" fill="#00978E"/>
</svg>
