<svg width="26" height="25" viewBox="0 0 26 25" fill="none" xmlns="http://www.w3.org/2000/svg">
<path d="M18.3674 15.7233H17.2381L16.8379 15.3373C18.2387 13.7078 19.082 11.5923 19.082 9.29102C19.082 4.15952 14.9225 0 9.79102 0C4.65952 0 0.5 4.15952 0.5 9.29102C0.5 14.4225 4.65952 18.582 9.79102 18.582C12.0923 18.582 14.2078 17.7387 15.8373 16.3379L16.2233 16.7381V17.8674L23.3702 25L25.5 22.8702L18.3674 15.7233ZM9.79102 15.7233C6.23185 15.7233 3.35878 12.8502 3.35878 9.29102C3.35878 5.73185 6.23185 2.85878 9.79102 2.85878C13.3502 2.85878 16.2233 5.73185 16.2233 9.29102C16.2233 12.8502 13.3502 15.7233 9.79102 15.7233Z" fill="#FAFAFA"/>
</svg>
