<svg width="22" height="22" viewBox="0 0 22 22" fill="none" xmlns="http://www.w3.org/2000/svg">
<path d="M16.6776 21.0975C16.3899 21.0975 16.1004 21.0279 15.8338 20.888L11.024 18.3582L6.16586 20.8872C5.86697 21.0461 5.5293 21.1174 5.19167 21.093C4.85404 21.0685 4.53016 20.9493 4.25727 20.749C3.98259 20.5513 3.76925 20.2802 3.64176 19.9667C3.51428 19.6532 3.47783 19.3101 3.5366 18.9768L4.45526 13.6215L0.5492 9.7823C0.305677 9.54704 0.133471 9.24785 0.0523741 8.9191C-0.0287231 8.59035 -0.0154213 8.24539 0.0907509 7.92387C0.194368 7.60183 0.386581 7.31548 0.645381 7.09761C0.90418 6.87974 1.2191 6.73915 1.55409 6.69195L6.93053 5.91056L9.37501 1.00929C9.68299 0.386294 10.3051 0 11.0003 0C11.6954 0 12.3175 0.386294 12.6255 1.00929L15.0304 5.88152L20.4464 6.69195C20.7814 6.73915 21.0963 6.87974 21.3551 7.09761C21.6139 7.31548 21.8061 7.60183 21.9098 7.92387C22.0155 8.24544 22.0286 8.59028 21.9475 8.91895C21.8664 9.24761 21.6945 9.54681 21.4513 9.7823L17.5602 13.5748L18.4639 18.9777C18.5222 19.3109 18.4855 19.6539 18.358 19.9673C18.2306 20.2806 18.0175 20.5518 17.7432 20.7499C17.4334 20.9749 17.0605 21.0965 16.6776 21.0975ZM1.77672 8.52223L5.66694 12.3148C6.09371 12.7319 6.28905 13.3302 6.18874 13.918L5.27096 19.2742L5.75669 20.1084L5.34664 19.3297L10.1555 16.8007C10.4156 16.6641 10.705 16.5926 10.9988 16.5924C11.2926 16.5923 11.5821 16.6635 11.8424 16.7998L16.6521 19.3297L16.7278 19.2742L15.8091 13.9189C15.7598 13.6293 15.7814 13.3321 15.8721 13.0527C15.9628 12.7733 16.12 12.5201 16.3301 12.3148L20.2212 8.52223L20.1921 8.43159L14.8157 7.65021C14.5249 7.60764 14.2489 7.49517 14.0112 7.32244C13.7734 7.14971 13.5812 6.92188 13.4509 6.65851L11.046 1.78628C11.039 1.7722 11.0311 1.75812 10.9985 1.75812L8.5461 6.65851C8.41621 6.92184 8.2243 7.14968 7.98687 7.32243C7.74944 7.49518 7.4736 7.60766 7.18307 7.65021L1.80488 8.43159L1.16164 9.15138L1.77672 8.52223Z" fill="#050505"/>
</svg>
